<mxfile host="app.diagrams.net" modified="2023-10-28T05:13:57.266Z" agent="Mozilla/5.0 (Macintosh; Intel Mac OS X 10_15_7) AppleWebKit/537.36 (KHTML, like Gecko) Chrome/118.0.0.0 Safari/537.36" etag="k4AL23KvaMBcjdh3U6Mn" version="22.0.8" type="device">
  <diagram name="Page-1" id="gOiNNly3XIHQYon5zwmd">
    <mxGraphModel dx="998" dy="568" grid="1" gridSize="10" guides="1" tooltips="1" connect="1" arrows="1" fold="1" page="1" pageScale="1" pageWidth="827" pageHeight="1169" math="0" shadow="0">
      <root>
        <mxCell id="0" />
        <mxCell id="1" parent="0" />
        <mxCell id="d39t1C9W4DLy6wsKVPg7-68" style="edgeStyle=orthogonalEdgeStyle;rounded=0;orthogonalLoop=1;jettySize=auto;html=1;exitX=1;exitY=0.5;exitDx=0;exitDy=0;entryX=0;entryY=0.25;entryDx=0;entryDy=0;" edge="1" parent="1" source="11REOSdpN8QmrCFgcRB6-1" target="d39t1C9W4DLy6wsKVPg7-40">
          <mxGeometry relative="1" as="geometry" />
        </mxCell>
        <mxCell id="11REOSdpN8QmrCFgcRB6-1" value="vendor_DIM" style="swimlane;whiteSpace=wrap;html=1;" parent="1" vertex="1">
          <mxGeometry x="70" y="112.5" width="200" height="130" as="geometry" />
        </mxCell>
        <mxCell id="11REOSdpN8QmrCFgcRB6-2" value="Vendorid" style="text;html=1;align=center;verticalAlign=middle;resizable=0;points=[];autosize=1;strokeColor=none;fillColor=none;" parent="11REOSdpN8QmrCFgcRB6-1" vertex="1">
          <mxGeometry x="75" y="60" width="70" height="30" as="geometry" />
        </mxCell>
        <mxCell id="11REOSdpN8QmrCFgcRB6-3" value="Vendor_Name" style="text;html=1;align=center;verticalAlign=middle;resizable=0;points=[];autosize=1;strokeColor=none;fillColor=none;" parent="11REOSdpN8QmrCFgcRB6-1" vertex="1">
          <mxGeometry x="60" y="100" width="100" height="30" as="geometry" />
        </mxCell>
        <mxCell id="d39t1C9W4DLy6wsKVPg7-32" value="Vendor_ID" style="text;html=1;align=center;verticalAlign=middle;resizable=0;points=[];autosize=1;strokeColor=none;fillColor=none;" vertex="1" parent="11REOSdpN8QmrCFgcRB6-1">
          <mxGeometry x="70" y="30" width="80" height="30" as="geometry" />
        </mxCell>
        <mxCell id="d39t1C9W4DLy6wsKVPg7-7" value="PK" style="text;html=1;strokeColor=none;fillColor=none;align=center;verticalAlign=middle;whiteSpace=wrap;rounded=0;" vertex="1" parent="11REOSdpN8QmrCFgcRB6-1">
          <mxGeometry y="30" width="60" height="30" as="geometry" />
        </mxCell>
        <mxCell id="d39t1C9W4DLy6wsKVPg7-69" style="edgeStyle=orthogonalEdgeStyle;rounded=0;orthogonalLoop=1;jettySize=auto;html=1;exitX=1;exitY=0.5;exitDx=0;exitDy=0;entryX=0;entryY=0.5;entryDx=0;entryDy=0;" edge="1" parent="1" source="11REOSdpN8QmrCFgcRB6-4" target="d39t1C9W4DLy6wsKVPg7-40">
          <mxGeometry relative="1" as="geometry" />
        </mxCell>
        <mxCell id="11REOSdpN8QmrCFgcRB6-4" value="Datetime_DIM" style="swimlane;whiteSpace=wrap;html=1;" parent="1" vertex="1">
          <mxGeometry x="70" y="292.5" width="200" height="100" as="geometry" />
        </mxCell>
        <mxCell id="11REOSdpN8QmrCFgcRB6-5" value="Datetime_ID" style="text;html=1;align=center;verticalAlign=middle;resizable=0;points=[];autosize=1;strokeColor=none;fillColor=none;" parent="11REOSdpN8QmrCFgcRB6-4" vertex="1">
          <mxGeometry x="55" y="30" width="90" height="30" as="geometry" />
        </mxCell>
        <mxCell id="11REOSdpN8QmrCFgcRB6-6" value="Timestamp" style="text;html=1;align=center;verticalAlign=middle;resizable=0;points=[];autosize=1;strokeColor=none;fillColor=none;" parent="11REOSdpN8QmrCFgcRB6-4" vertex="1">
          <mxGeometry x="60" y="60" width="80" height="30" as="geometry" />
        </mxCell>
        <mxCell id="d39t1C9W4DLy6wsKVPg7-9" value="PK" style="text;html=1;strokeColor=none;fillColor=none;align=center;verticalAlign=middle;whiteSpace=wrap;rounded=0;" vertex="1" parent="11REOSdpN8QmrCFgcRB6-4">
          <mxGeometry y="30" width="60" height="30" as="geometry" />
        </mxCell>
        <mxCell id="d39t1C9W4DLy6wsKVPg7-70" style="edgeStyle=orthogonalEdgeStyle;rounded=0;orthogonalLoop=1;jettySize=auto;html=1;exitX=1;exitY=0.5;exitDx=0;exitDy=0;entryX=0;entryY=0.75;entryDx=0;entryDy=0;" edge="1" parent="1" source="11REOSdpN8QmrCFgcRB6-7" target="d39t1C9W4DLy6wsKVPg7-40">
          <mxGeometry relative="1" as="geometry" />
        </mxCell>
        <mxCell id="11REOSdpN8QmrCFgcRB6-7" value="TaxiZone_DIM" style="swimlane;whiteSpace=wrap;html=1;" parent="1" vertex="1">
          <mxGeometry x="70" y="472.5" width="200" height="100" as="geometry" />
        </mxCell>
        <mxCell id="11REOSdpN8QmrCFgcRB6-8" value="Zone_ID" style="text;html=1;align=center;verticalAlign=middle;resizable=0;points=[];autosize=1;strokeColor=none;fillColor=none;" parent="11REOSdpN8QmrCFgcRB6-7" vertex="1">
          <mxGeometry x="60" y="30" width="70" height="30" as="geometry" />
        </mxCell>
        <mxCell id="11REOSdpN8QmrCFgcRB6-9" value="TaxiZone" style="text;html=1;align=center;verticalAlign=middle;resizable=0;points=[];autosize=1;strokeColor=none;fillColor=none;" parent="11REOSdpN8QmrCFgcRB6-7" vertex="1">
          <mxGeometry x="60" y="60" width="70" height="30" as="geometry" />
        </mxCell>
        <mxCell id="d39t1C9W4DLy6wsKVPg7-12" value="PK" style="text;html=1;strokeColor=none;fillColor=none;align=center;verticalAlign=middle;whiteSpace=wrap;rounded=0;" vertex="1" parent="11REOSdpN8QmrCFgcRB6-7">
          <mxGeometry y="30" width="60" height="30" as="geometry" />
        </mxCell>
        <mxCell id="d39t1C9W4DLy6wsKVPg7-6" value="" style="endArrow=none;html=1;rounded=0;entryX=0.25;entryY=0;entryDx=0;entryDy=0;exitX=0.25;exitY=1;exitDx=0;exitDy=0;" edge="1" parent="1" source="11REOSdpN8QmrCFgcRB6-1" target="11REOSdpN8QmrCFgcRB6-1">
          <mxGeometry width="50" height="50" relative="1" as="geometry">
            <mxPoint x="390" y="290" as="sourcePoint" />
            <mxPoint x="440" y="240" as="targetPoint" />
          </mxGeometry>
        </mxCell>
        <mxCell id="d39t1C9W4DLy6wsKVPg7-8" value="" style="endArrow=none;html=1;rounded=0;entryX=0.25;entryY=0;entryDx=0;entryDy=0;exitX=0.25;exitY=1;exitDx=0;exitDy=0;" edge="1" parent="1" source="11REOSdpN8QmrCFgcRB6-4" target="11REOSdpN8QmrCFgcRB6-4">
          <mxGeometry width="50" height="50" relative="1" as="geometry">
            <mxPoint x="390" y="290" as="sourcePoint" />
            <mxPoint x="440" y="240" as="targetPoint" />
          </mxGeometry>
        </mxCell>
        <mxCell id="d39t1C9W4DLy6wsKVPg7-11" value="" style="endArrow=none;html=1;rounded=0;exitX=0.25;exitY=1;exitDx=0;exitDy=0;entryX=0.25;entryY=0;entryDx=0;entryDy=0;" edge="1" parent="1" source="11REOSdpN8QmrCFgcRB6-7" target="11REOSdpN8QmrCFgcRB6-7">
          <mxGeometry width="50" height="50" relative="1" as="geometry">
            <mxPoint x="390" y="340" as="sourcePoint" />
            <mxPoint x="440" y="290" as="targetPoint" />
          </mxGeometry>
        </mxCell>
        <mxCell id="d39t1C9W4DLy6wsKVPg7-72" style="edgeStyle=orthogonalEdgeStyle;rounded=0;orthogonalLoop=1;jettySize=auto;html=1;exitX=0;exitY=0.5;exitDx=0;exitDy=0;entryX=1;entryY=0.5;entryDx=0;entryDy=0;" edge="1" parent="1" source="d39t1C9W4DLy6wsKVPg7-13" target="d39t1C9W4DLy6wsKVPg7-40">
          <mxGeometry relative="1" as="geometry" />
        </mxCell>
        <mxCell id="d39t1C9W4DLy6wsKVPg7-13" value="RateCode_DIM" style="swimlane;whiteSpace=wrap;html=1;" vertex="1" parent="1">
          <mxGeometry x="800" y="342.5" width="200" height="130" as="geometry" />
        </mxCell>
        <mxCell id="d39t1C9W4DLy6wsKVPg7-14" value="RateCode_ID" style="text;html=1;align=center;verticalAlign=middle;resizable=0;points=[];autosize=1;strokeColor=none;fillColor=none;" vertex="1" parent="d39t1C9W4DLy6wsKVPg7-13">
          <mxGeometry x="45" y="30" width="100" height="30" as="geometry" />
        </mxCell>
        <mxCell id="d39t1C9W4DLy6wsKVPg7-16" value="PK" style="text;html=1;strokeColor=none;fillColor=none;align=center;verticalAlign=middle;whiteSpace=wrap;rounded=0;" vertex="1" parent="d39t1C9W4DLy6wsKVPg7-13">
          <mxGeometry y="30" width="60" height="30" as="geometry" />
        </mxCell>
        <mxCell id="d39t1C9W4DLy6wsKVPg7-20" value="RateCode" style="text;html=1;align=center;verticalAlign=middle;resizable=0;points=[];autosize=1;strokeColor=none;fillColor=none;" vertex="1" parent="d39t1C9W4DLy6wsKVPg7-13">
          <mxGeometry x="60" y="60" width="80" height="30" as="geometry" />
        </mxCell>
        <mxCell id="d39t1C9W4DLy6wsKVPg7-15" value="Description" style="text;html=1;align=center;verticalAlign=middle;resizable=0;points=[];autosize=1;strokeColor=none;fillColor=none;" vertex="1" parent="d39t1C9W4DLy6wsKVPg7-13">
          <mxGeometry x="64" y="90" width="80" height="30" as="geometry" />
        </mxCell>
        <mxCell id="d39t1C9W4DLy6wsKVPg7-17" value="" style="endArrow=none;html=1;rounded=0;exitX=0.25;exitY=0;exitDx=0;exitDy=0;entryX=0.25;entryY=1;entryDx=0;entryDy=0;" edge="1" parent="1" source="d39t1C9W4DLy6wsKVPg7-13" target="d39t1C9W4DLy6wsKVPg7-13">
          <mxGeometry width="50" height="50" relative="1" as="geometry">
            <mxPoint x="390" y="340" as="sourcePoint" />
            <mxPoint x="440" y="290" as="targetPoint" />
          </mxGeometry>
        </mxCell>
        <mxCell id="d39t1C9W4DLy6wsKVPg7-71" style="edgeStyle=orthogonalEdgeStyle;rounded=0;orthogonalLoop=1;jettySize=auto;html=1;exitX=0;exitY=0.5;exitDx=0;exitDy=0;entryX=1;entryY=0.25;entryDx=0;entryDy=0;" edge="1" parent="1" source="d39t1C9W4DLy6wsKVPg7-21" target="d39t1C9W4DLy6wsKVPg7-40">
          <mxGeometry relative="1" as="geometry" />
        </mxCell>
        <mxCell id="d39t1C9W4DLy6wsKVPg7-21" value="&amp;nbsp; &amp;nbsp; &amp;nbsp;PaymentType_DIM" style="swimlane;whiteSpace=wrap;html=1;" vertex="1" parent="1">
          <mxGeometry x="800" y="117.5" width="200" height="130" as="geometry" />
        </mxCell>
        <mxCell id="d39t1C9W4DLy6wsKVPg7-22" value="PaymentType_ID" style="text;html=1;align=center;verticalAlign=middle;resizable=0;points=[];autosize=1;strokeColor=none;fillColor=none;" vertex="1" parent="d39t1C9W4DLy6wsKVPg7-21">
          <mxGeometry x="40" y="30" width="120" height="30" as="geometry" />
        </mxCell>
        <mxCell id="d39t1C9W4DLy6wsKVPg7-23" value="PK" style="text;html=1;strokeColor=none;fillColor=none;align=center;verticalAlign=middle;whiteSpace=wrap;rounded=0;" vertex="1" parent="d39t1C9W4DLy6wsKVPg7-21">
          <mxGeometry x="-10" y="30" width="60" height="30" as="geometry" />
        </mxCell>
        <mxCell id="d39t1C9W4DLy6wsKVPg7-24" value="PaymentType" style="text;html=1;align=center;verticalAlign=middle;resizable=0;points=[];autosize=1;strokeColor=none;fillColor=none;" vertex="1" parent="d39t1C9W4DLy6wsKVPg7-21">
          <mxGeometry x="50" y="60" width="100" height="30" as="geometry" />
        </mxCell>
        <mxCell id="d39t1C9W4DLy6wsKVPg7-25" value="Description" style="text;html=1;align=center;verticalAlign=middle;resizable=0;points=[];autosize=1;strokeColor=none;fillColor=none;" vertex="1" parent="d39t1C9W4DLy6wsKVPg7-21">
          <mxGeometry x="64" y="90" width="80" height="30" as="geometry" />
        </mxCell>
        <mxCell id="d39t1C9W4DLy6wsKVPg7-40" value="" style="shape=internalStorage;whiteSpace=wrap;html=1;backgroundOutline=1;dx=150;dy=25;" vertex="1" parent="1">
          <mxGeometry x="370" y="137.5" width="310" height="432.5" as="geometry" />
        </mxCell>
        <mxCell id="d39t1C9W4DLy6wsKVPg7-41" value="Trip_FACT" style="text;html=1;strokeColor=none;fillColor=none;align=center;verticalAlign=middle;whiteSpace=wrap;rounded=0;" vertex="1" parent="1">
          <mxGeometry x="570" y="137.5" width="60" height="30" as="geometry" />
        </mxCell>
        <mxCell id="d39t1C9W4DLy6wsKVPg7-42" value="FK ( Vendor_ID )" style="text;html=1;strokeColor=none;fillColor=none;align=center;verticalAlign=middle;whiteSpace=wrap;rounded=0;" vertex="1" parent="1">
          <mxGeometry x="380" y="167.5" width="140" height="30" as="geometry" />
        </mxCell>
        <mxCell id="d39t1C9W4DLy6wsKVPg7-43" value="VendorID" style="text;html=1;strokeColor=none;fillColor=none;align=center;verticalAlign=middle;whiteSpace=wrap;rounded=0;" vertex="1" parent="1">
          <mxGeometry x="560" y="167.5" width="60" height="30" as="geometry" />
        </mxCell>
        <mxCell id="d39t1C9W4DLy6wsKVPg7-44" value="FK ( Datetime_ID )" style="text;html=1;strokeColor=none;fillColor=none;align=center;verticalAlign=middle;whiteSpace=wrap;rounded=0;" vertex="1" parent="1">
          <mxGeometry x="380" y="190" width="140" height="30" as="geometry" />
        </mxCell>
        <mxCell id="d39t1C9W4DLy6wsKVPg7-45" value="FK ( Datetime_ID )" style="text;html=1;strokeColor=none;fillColor=none;align=center;verticalAlign=middle;whiteSpace=wrap;rounded=0;" vertex="1" parent="1">
          <mxGeometry x="380" y="212.5" width="140" height="30" as="geometry" />
        </mxCell>
        <mxCell id="d39t1C9W4DLy6wsKVPg7-46" value="tpep_pickup_datetime" style="text;html=1;strokeColor=none;fillColor=none;align=center;verticalAlign=middle;whiteSpace=wrap;rounded=0;" vertex="1" parent="1">
          <mxGeometry x="540" y="190" width="120" height="30" as="geometry" />
        </mxCell>
        <mxCell id="d39t1C9W4DLy6wsKVPg7-47" value="tpep_dropoff_datetime" style="text;html=1;strokeColor=none;fillColor=none;align=center;verticalAlign=middle;whiteSpace=wrap;rounded=0;" vertex="1" parent="1">
          <mxGeometry x="540" y="212.5" width="120" height="30" as="geometry" />
        </mxCell>
        <mxCell id="d39t1C9W4DLy6wsKVPg7-48" value="FK ( Zone_ID )" style="text;html=1;strokeColor=none;fillColor=none;align=center;verticalAlign=middle;whiteSpace=wrap;rounded=0;" vertex="1" parent="1">
          <mxGeometry x="370" y="232.5" width="140" height="30" as="geometry" />
        </mxCell>
        <mxCell id="d39t1C9W4DLy6wsKVPg7-49" value="FK ( Zone_ID )" style="text;html=1;strokeColor=none;fillColor=none;align=center;verticalAlign=middle;whiteSpace=wrap;rounded=0;" vertex="1" parent="1">
          <mxGeometry x="370" y="252.5" width="140" height="30" as="geometry" />
        </mxCell>
        <mxCell id="d39t1C9W4DLy6wsKVPg7-50" value="PULocationID" style="text;html=1;strokeColor=none;fillColor=none;align=center;verticalAlign=middle;whiteSpace=wrap;rounded=0;" vertex="1" parent="1">
          <mxGeometry x="560" y="232.5" width="60" height="30" as="geometry" />
        </mxCell>
        <mxCell id="d39t1C9W4DLy6wsKVPg7-51" value="DOLocationID" style="text;html=1;strokeColor=none;fillColor=none;align=center;verticalAlign=middle;whiteSpace=wrap;rounded=0;" vertex="1" parent="1">
          <mxGeometry x="560" y="252.5" width="60" height="30" as="geometry" />
        </mxCell>
        <mxCell id="d39t1C9W4DLy6wsKVPg7-52" value="FK ( RateCode_ID )" style="text;html=1;strokeColor=none;fillColor=none;align=center;verticalAlign=middle;whiteSpace=wrap;rounded=0;" vertex="1" parent="1">
          <mxGeometry x="380" y="272.5" width="140" height="30" as="geometry" />
        </mxCell>
        <mxCell id="d39t1C9W4DLy6wsKVPg7-53" value="RateCodeID" style="text;html=1;strokeColor=none;fillColor=none;align=center;verticalAlign=middle;whiteSpace=wrap;rounded=0;" vertex="1" parent="1">
          <mxGeometry x="550" y="272.5" width="60" height="30" as="geometry" />
        </mxCell>
        <mxCell id="d39t1C9W4DLy6wsKVPg7-54" value="FK ( PaymentType_ID )" style="text;html=1;strokeColor=none;fillColor=none;align=center;verticalAlign=middle;whiteSpace=wrap;rounded=0;" vertex="1" parent="1">
          <mxGeometry x="380" y="292.5" width="140" height="30" as="geometry" />
        </mxCell>
        <mxCell id="d39t1C9W4DLy6wsKVPg7-55" value="Payment_type" style="text;html=1;strokeColor=none;fillColor=none;align=center;verticalAlign=middle;whiteSpace=wrap;rounded=0;" vertex="1" parent="1">
          <mxGeometry x="550" y="292.5" width="60" height="30" as="geometry" />
        </mxCell>
        <mxCell id="d39t1C9W4DLy6wsKVPg7-56" value="Trip_distance" style="text;html=1;strokeColor=none;fillColor=none;align=center;verticalAlign=middle;whiteSpace=wrap;rounded=0;" vertex="1" parent="1">
          <mxGeometry x="560" y="312.5" width="60" height="30" as="geometry" />
        </mxCell>
        <mxCell id="d39t1C9W4DLy6wsKVPg7-57" value="Store_and_fwd_flag" style="text;html=1;strokeColor=none;fillColor=none;align=center;verticalAlign=middle;whiteSpace=wrap;rounded=0;" vertex="1" parent="1">
          <mxGeometry x="560" y="332.5" width="60" height="30" as="geometry" />
        </mxCell>
        <mxCell id="d39t1C9W4DLy6wsKVPg7-58" value="Fare_amount" style="text;html=1;strokeColor=none;fillColor=none;align=center;verticalAlign=middle;whiteSpace=wrap;rounded=0;" vertex="1" parent="1">
          <mxGeometry x="560" y="352.5" width="60" height="30" as="geometry" />
        </mxCell>
        <mxCell id="d39t1C9W4DLy6wsKVPg7-59" value="Extra" style="text;html=1;strokeColor=none;fillColor=none;align=center;verticalAlign=middle;whiteSpace=wrap;rounded=0;" vertex="1" parent="1">
          <mxGeometry x="560" y="372.5" width="60" height="30" as="geometry" />
        </mxCell>
        <mxCell id="d39t1C9W4DLy6wsKVPg7-60" value="MTA_tax" style="text;html=1;strokeColor=none;fillColor=none;align=center;verticalAlign=middle;whiteSpace=wrap;rounded=0;" vertex="1" parent="1">
          <mxGeometry x="560" y="392.5" width="60" height="30" as="geometry" />
        </mxCell>
        <mxCell id="d39t1C9W4DLy6wsKVPg7-61" value="Improvement_surcharge" style="text;html=1;strokeColor=none;fillColor=none;align=center;verticalAlign=middle;whiteSpace=wrap;rounded=0;" vertex="1" parent="1">
          <mxGeometry x="570" y="412.5" width="60" height="30" as="geometry" />
        </mxCell>
        <mxCell id="d39t1C9W4DLy6wsKVPg7-62" value="Tip_amount" style="text;html=1;strokeColor=none;fillColor=none;align=center;verticalAlign=middle;whiteSpace=wrap;rounded=0;" vertex="1" parent="1">
          <mxGeometry x="560" y="432.5" width="60" height="30" as="geometry" />
        </mxCell>
        <mxCell id="d39t1C9W4DLy6wsKVPg7-63" value="Tolls_amount" style="text;html=1;strokeColor=none;fillColor=none;align=center;verticalAlign=middle;whiteSpace=wrap;rounded=0;" vertex="1" parent="1">
          <mxGeometry x="560" y="452.5" width="60" height="30" as="geometry" />
        </mxCell>
        <mxCell id="d39t1C9W4DLy6wsKVPg7-64" value="Total_amount" style="text;html=1;strokeColor=none;fillColor=none;align=center;verticalAlign=middle;whiteSpace=wrap;rounded=0;" vertex="1" parent="1">
          <mxGeometry x="560" y="472.5" width="60" height="30" as="geometry" />
        </mxCell>
        <mxCell id="d39t1C9W4DLy6wsKVPg7-65" value="Congestion_Surcharge" style="text;html=1;strokeColor=none;fillColor=none;align=center;verticalAlign=middle;whiteSpace=wrap;rounded=0;" vertex="1" parent="1">
          <mxGeometry x="570" y="492.5" width="60" height="30" as="geometry" />
        </mxCell>
        <mxCell id="d39t1C9W4DLy6wsKVPg7-66" value="Airport_fee" style="text;html=1;strokeColor=none;fillColor=none;align=center;verticalAlign=middle;whiteSpace=wrap;rounded=0;" vertex="1" parent="1">
          <mxGeometry x="560" y="512.5" width="60" height="30" as="geometry" />
        </mxCell>
        <mxCell id="d39t1C9W4DLy6wsKVPg7-67" value="" style="endArrow=none;html=1;rounded=0;entryX=0.25;entryY=0;entryDx=0;entryDy=0;exitX=0.25;exitY=1;exitDx=0;exitDy=0;" edge="1" parent="1" source="d39t1C9W4DLy6wsKVPg7-21" target="d39t1C9W4DLy6wsKVPg7-21">
          <mxGeometry width="50" height="50" relative="1" as="geometry">
            <mxPoint x="480" y="430" as="sourcePoint" />
            <mxPoint x="530" y="380" as="targetPoint" />
            <Array as="points" />
          </mxGeometry>
        </mxCell>
        <mxCell id="d39t1C9W4DLy6wsKVPg7-73" value="passenger_count" style="text;html=1;strokeColor=none;fillColor=none;align=center;verticalAlign=middle;whiteSpace=wrap;rounded=0;" vertex="1" parent="1">
          <mxGeometry x="560" y="530" width="60" height="30" as="geometry" />
        </mxCell>
      </root>
    </mxGraphModel>
  </diagram>
</mxfile>
